<?xml version="1.0" encoding="UTF-8" standalone="no"?>
<svg
   data-name="Layer 1"
   width="787.06663"
   height="428.12769"
   viewBox="0 0 787.06663 428.12769"
   version="1.1"
   id="svg926"
   sodipodi:docname="undraw_project_team_lc5a.svg"
   inkscape:version="1.1.1 (c3084ef, 2021-09-22)"
   inkscape:export-filename="/Users/amit/bitmap.png"
   inkscape:export-xdpi="23.889999"
   inkscape:export-ydpi="23.889999"
   xmlns:inkscape="http://www.inkscape.org/namespaces/inkscape"
   xmlns:sodipodi="http://sodipodi.sourceforge.net/DTD/sodipodi-0.dtd"
   xmlns="http://www.w3.org/2000/svg"
   xmlns:svg="http://www.w3.org/2000/svg">
  <defs
     id="defs930" />
  <sodipodi:namedview
     id="namedview928"
     pagecolor="#ffffff"
     bordercolor="#666666"
     borderopacity="1.0"
     inkscape:pageshadow="2"
     inkscape:pageopacity="0.0"
     inkscape:pagecheckerboard="0"
     showgrid="false"
     inkscape:zoom="1.2695657"
     inkscape:cx="366.66082"
     inkscape:cy="197.31157"
     inkscape:window-width="1920"
     inkscape:window-height="1027"
     inkscape:window-x="0"
     inkscape:window-y="25"
     inkscape:window-maximized="1"
     inkscape:current-layer="layer1" />
  <g
     inkscape:groupmode="layer"
     id="layer1"
     inkscape:label="Layer 1"
     style="display:inline">
    <path
       style="fill:#986245;fill-opacity:0.207602;stroke:none;stroke-width:1px;stroke-linecap:butt;stroke-linejoin:miter;stroke-opacity:1"
       d="M 217.74801,358.28601 C 172.85077,342.53259 129.52886,233.834 129.52886,233.834 c 0,0 -8.66438,-29.9315 16.54109,-63.01367 25.20547,-33.08218 41.74656,-27.56849 29.14383,-50.41094 -12.60275,-22.842459 25.20547,-50.410944 33.86985,-51.986286 8.66438,-1.575342 81.91778,-7.876709 95.30818,-22.054786 13.39041,-14.178077 24.4178,-34.657521 85.06846,-23.630128 60.65067,11.027393 119.72599,11.027393 131.54105,4.726025 11.81507,-6.301367 -1.57534,-44.109572 89.79449,-2.363012 91.36983,41.746559 122.87666,18.116431 124.45201,63.801346 1.57534,45.684911 -8.84314,40.572011 -2.53312,68.196991 6.31002,27.62498 20.24123,23.66101 -14.71372,66.22414 -34.95495,42.56313 -40.01938,56.3256 -73.21844,88.16109 -33.19906,31.83549 -25.32235,33.41083 -52.10316,60.97932 -26.78082,27.56848 -14.17808,25.20547 -74.82874,25.99314 -60.65067,0.78767 -59.07532,-35.4452 -113.42462,-25.99314 -54.34929,9.45205 -23.63013,9.45205 -66.95203,18.9041 -43.3219,9.45205 -35.93798,26.87181 -67.7397,5.51369 -31.80172,-21.35811 -51.98628,-38.59587 -51.98628,-38.59587 z"
       id="path1045" />
  </g>
  <g
     inkscape:groupmode="layer"
     id="layer2"
     inkscape:label="Layer 2">
    <path
       d="m 178.4815,372.46018 a 400.444,400.444 0 0 1 -3.77512,51.45474 c -0.0827,0.59886 -0.17275,1.19769 -0.25578,1.7965 l -161.216998,-0.9008 c -0.47335,-0.59474 -0.93926,-1.19662 -1.39067,-1.8057 -1.50514,-2.01572 -2.9158199,-4.08873 -4.2108199,-6.23325 -6.22436,-10.3314 -9.07393,-22.42741 -6.21838,-30.773 l 0.0511,-0.12968 a 14.64433,14.64433 0 0 1 2.85818,-4.96628 c 6.5105999,-7.32867 19.6743699,-6.107 31.6202199,-0.19158 -10.71463,-11.72839 -19.24628,-26.52779 -19.89453,-39.738 -0.63561,-12.88512 6.10195,-22.08987 13.40965,-29.91231 0.23979,-0.25859 0.47953,-0.51 0.71927,-0.76137 0.11636,-0.12931 0.23974,-0.2514 0.35575,-0.38072 5.70157,-5.96126 12.34862,-11.83781 21.9698,-11.12695 10.55192,0.781 22.25086,9.61942 30.45367,19.91855 8.20285,10.29191 13.65383,21.98365 19.178998,33.39424 5.53227,11.4034 11.51773,23.09817 20.39527,32.84507 -12.024,-15.20882 -21.71855,-32.51307 -25.299698,-49.34272 -3.58115,-16.82965 -0.42948,-32.99345 10.286738,-40.91958 a 25.06425,25.06425 0 0 1 10.97874,-4.42987 c 0.4623,-0.0768 0.93191,-0.13921 1.4089,-0.19432 9.92021,-1.12872 21.76466,2.30225 31.84216,10.5034 11.09815,9.03006 18.79258,22.41676 22.621,35.1248 3.82812,12.70816 4.23608,24.94216 4.11251,36.76883 z"
       fill="#f2f2f2"
       id="path824" />
    <path
       d="m 73.003982,425.14459 -3.08277,-0.0172 q -1.46826,-0.918 -2.95039,-1.81441 c -0.61167,-0.38609 -1.23046,-0.7578 -1.84957,-1.13675 q -15.33839,-9.36783 -30.8686,-17.97134 -15.51607,-8.61064 -31.1881899,-16.42786 a 1.292,1.292 0 0 1 -0.74272,-1.47718 0.37233,0.37233 0 0 1 0.0514,-0.108 c 0.14573,-0.27357 0.47144,-0.38731 0.9468,-0.15359 1.28153,0.64258 2.57046,1.2852 3.8519,1.94224 q 15.7149099,7.951 31.2949399,16.69565 15.56928,8.7409 30.96116,18.25343 c 0.21574,0.13117 0.4318,0.26958 0.64754,0.40075 0.97853,0.60479 1.95005,1.20954 2.92853,1.81429 z"
       fill="#ffffff"
       id="path826" />
    <path
       d="m 112.7525,425.36668 -1.90628,-0.0107 c -0.43,-0.60168 -0.85249,-1.20337 -1.28244,-1.80509 Q 94.411302,402.3026 79.265182,381.05429 54.461642,346.26752 29.672942,311.48086 a 1.22792,1.22792 0 0 1 -0.21449,-0.42 c -0.14133,-0.51347 0.23584,-0.81462 0.71927,-0.76137 a 1.44816,1.44816 0 0 1 1.00723,0.64105 q 13.90617,19.50841 27.80537,39.00232 24.6744,34.61277 49.341788,69.21823 c 1.046,1.46443 2.092,2.936 3.138,4.40046 0.4299,0.60172 0.85985,1.20344 1.28239,1.80508 z"
       fill="#ffffff"
       id="path828" />
    <path
       d="m 155.22108,414.29651 c -0.0973,3.21264 -0.30991,6.37409 -0.58761,9.50626 q -0.0806,0.89854 -0.16164,1.797 l -2.00007,-0.0112 c 0.0612,-0.59894 0.12234,-1.19793 0.1761,-1.797 0.42263,-4.525 0.7225,-9.10116 0.76322,-13.80157 a 192.53934,192.53934 0 0 0 -3.79046,-38.81036 241.64483,241.64483 0 0 0 -11.73951,-40.32059 276.90175,276.90175 0 0 0 -19.20756,-39.893 1.0655,1.0655 0 0 1 -0.17656,-0.7086 c 0.0825,-0.57 0.84148,-0.739 1.4089,-0.19432 a 1.65516,1.65516 0 0 1 0.28672,0.36263 q 1.38395,2.37972 2.71738,4.7736 a 276.709,276.709 0 0 1 18.38389,40.03277 240.50138,240.50138 0 0 1 10.94448,40.38115 189.95289,189.95289 0 0 1 2.98272,38.6832 z"
       fill="#ffffff"
       id="path830" />
    <path
       d="m 713.70042,331.79303 c 0,-7.732 -29.10157,-14 -65,-14 -35.89843,0 -65,6.268 -65,14 0,4.95544 11.96435,9.30621 30,11.79431 v 76.70569 a 6.5,6.5 0 0 0 13,0 v -75.324 c 6.87207,0.53241 14.27685,0.824 22,0.824 7.72315,0 15.12793,-0.29163 22,-0.824 v 75.324 a 6.5,6.5 0 0 0 13,0 v -76.70569 c 18.03564,-2.4881 30,-6.83883 30,-11.79431 z"
       fill="#cccccc"
       id="path832" />
    <circle
       cx="655.88782"
       cy="175.65048"
       r="28"
       fill="#2f2e41"
       id="circle834" />
    <polygon
       points="585.907,367.746 585.905,415.034 573.645,415.034 567.813,367.746 "
       fill="#a0616a"
       id="polygon836"
       transform="translate(0.30218412,0.18265328)" />
    <path
       d="m 565.19039,411.71328 h 23.64387 v 14.88687 h -38.53073 v 0 a 14.88686,14.88686 0 0 1 14.88686,-14.88687 z"
       fill="#2f2e41"
       id="path838" />
    <polygon
       points="580.926,363.073 566.768,408.192 555.07,404.521 563.662,357.656 "
       fill="#a0616a"
       id="polygon840"
       transform="translate(0.30218412,0.18265328)" />
    <path
       d="m 548.06601,398.73935 22.55914,7.07939 -4.45739,14.20389 -36.76306,-11.53679 v 0 a 14.88686,14.88686 0 0 1 18.66131,-9.74649 z"
       fill="#2f2e41"
       id="path842" />
    <path
       d="m 571.0582,389.50694 a 4.46207,4.46207 0 0 1 -1.572,-0.28614 l -9.01929,-3.38183 a 4.51574,4.51574 0 0 1 -2.814,-5.1836 c 2.27075,-10.21 10.00976,-44.9707 14.24731,-63.61523 5.02588,-22.11523 78.34278,-26.22461 81.46119,-26.38867 l 0.25634,-0.0137 8.24756,10.36425 c 2.98023,9.57911 2.03565,17.05079 -2.80762,22.208 -14.13232,15.04688 -56.32739,5.71 -61.35888,4.52832 l -22.42723,58.87117 a 4.513,4.513 0 0 1 -4.21338,2.89743 z"
       fill="#2f2e41"
       id="path844" />
    <path
       d="m 584.0582,396.50694 a 4.46207,4.46207 0 0 1 -1.572,-0.28614 l -9.01929,-3.38183 a 4.51574,4.51574 0 0 1 -2.814,-5.1836 c 2.27075,-10.21 10.00976,-44.9707 14.24731,-63.61523 5.02588,-22.11523 78.34278,-26.22461 81.46119,-26.38867 l 0.25634,-0.0137 8.24756,10.36425 c 2.98023,9.57911 2.03565,17.05079 -2.80762,22.208 -14.13232,15.0459 -56.32714,5.71 -61.35888,4.52832 l -22.42723,58.87117 a 4.513,4.513 0 0 1 -4.21338,2.89743 z"
       fill="#2f2e41"
       id="path846" />
    <path
       d="m 557.9635,252.48695 a 10.52657,10.52657 0 0 1 0.88488,1.40152 l 49.32026,5.19623 7.09959,-9.734 16.09071,8.79449 -13.94452,23.62132 -60.48739,-15.42252 a 10.49579,10.49579 0 1 1 1.03642,-13.857 z"
       fill="#a0616a"
       id="path848" />
    <path
       d="m 672.5765,311.96885 a 4.50062,4.50062 0 0 1 -2.04956,-0.501 c -9.8623,-5.01464 -29.0664,-13.69921 -46.87451,-15.5166 a 4.39222,4.39222 0 0 1 -3.09546,-1.75 4.5186,4.5186 0 0 1 -0.83374,-3.51074 c 1.60694,-8.89551 5.29321,-31.54687 4.81836,-49.70117 a 24.59626,24.59626 0 0 1 18.582,-24.46777 v 0 a 79.86638,79.86638 0 0 1 9.91291,-1.95406 24.79543,24.79543 0 0 1 27.55933,28.76172 c -3.17578,18.81348 -6.3772,45.08985 -3.59473,63.43262 a 4.50689,4.50689 0 0 1 -1.8186,4.34863 4.42877,4.42877 0 0 1 -2.606,0.85837 z"
       fill="#f9a826"
       id="path850" />
    <path
       d="m 625.45444,264.11729 a 4.49612,4.49612 0 0 1 -1.78662,-0.37305 l -12.8479,-5.56152 a 4.5057,4.5057 0 0 1 -2.342,-5.917 l 9.93164,-22.94239 a 11.49973,11.49973 0 1 1 21.10718,9.13575 l -9.93144,22.94243 a 4.51063,4.51063 0 0 1 -4.13086,2.71582 z"
       fill="#f9a826"
       id="path852" />
    <circle
       cx="654.8642"
       cy="182.20166"
       r="24.561029"
       fill="#a0616a"
       id="circle854" />
    <path
       d="m 629.86106,170.13459 a 88.59047,88.59047 0 0 0 38.32618,12.62844 l -4.03991,-4.84062 a 29.68836,29.68836 0 0 0 9.17074,1.82106 c 3.1302,-0.0487 6.40986,-1.254 8.18641,-3.83171 a 9.342,9.342 0 0 0 0.62532,-8.62974 17.69416,17.69416 0 0 0 -5.56637,-6.96015 33.1395,33.1395 0 0 0 -30.84447,-5.51247 19.80612,19.80612 0 0 0 -9.21237,5.90942 c -2.32839,2.87239 -6.811,5.43157 -5.6188,8.93167 z"
       fill="#2f2e41"
       id="path856" />
    <path
       d="m 658.99395,150.31373 a 75.48483,75.48483 0 0 0 -27.463,-17.7592 c -6.63872,-2.45942 -13.86459,-3.97895 -20.80509,-2.58226 -6.9405,1.39669 -13.50411,6.19808 -15.44041,13.00778 -1.58332,5.56836 0.0516,11.5638 2.50871,16.80555 2.45713,5.24175 5.73758,10.10248 7.72463,15.53986 a 35.46793,35.46793 0 0 1 -35.689,47.56226 c 6.81938,0.91438 13.10516,4.11905 19.77076,5.82483 6.6656,1.70578 14.53281,1.59011 19.48624,-3.18518 5.24092,-5.05244 5.34585,-13.26719 5.09246,-20.54249 q -0.565,-16.22248 -1.13,-32.445 c -0.1921,-5.51543 -0.35615,-11.20764 1.63288,-16.35551 1.98903,-5.14787 6.71617,-9.65569 12.23475,-9.60885 4.18253,0.0355 7.88443,2.56925 11.23866,5.068 3.35423,2.49875 6.90445,5.16474 11.07059,5.53641 4.16614,0.37167 8.92293,-2.71145 8.61118,-6.8825"
       fill="#2f2e41"
       id="path858" />
    <path
       d="m 613.57116,305.65971 a 11.00442,11.00442 0 1 1 4.24194,-21.16357 h 2.4e-4 a 10.56725,10.56725 0 0 1 1.31153,0.66455 l 44.74072,-20.08691 1.25683,-12.13428 19.28589,-0.51611 -0.12768,20.20166 a 10.88006,10.88006 0 0 1 -7.86109,10.34277 l -52.322,14.89307 a 10.25939,10.25939 0 0 1 -0.35913,1.019 11.04529,11.04529 0 0 1 -10.16723,6.77978 z"
       fill="#a0616a"
       id="path860" />
    <path
       d="m 682.77487,262.32636 a 4.49622,4.49622 0 0 1 -1.76188,0.47641 l -13.97358,0.85916 a 4.5057,4.5057 0 0 1 -4.76751,-4.21507 l -1.53376,-24.95271 a 11.49972,11.49972 0 1 1 22.956,-1.41237 l 1.534,24.95261 a 4.51061,4.51061 0 0 1 -2.45329,4.292 z"
       fill="#f9a826"
       id="path862" />
    <path
       d="m 652.40515,308.18265 h -79 a 3.5,3.5 0 0 1 -3.5,-3.5 v 0 a 3.5,3.5 0 0 1 3.5,-3.5 h 79 a 3.5,3.5 0 0 1 3.5,3.5 v 0 a 3.5,3.5 0 0 1 -3.5,3.5 z"
       fill="#3f3d56"
       id="path864" />
    <path
       d="m 538.90514,301.68266 v -49 a 6.50737,6.50737 0 0 1 6.5,-6.5 h 89 a 6.50737,6.50737 0 0 1 6.5,6.5 v 49 a 6.50736,6.50736 0 0 1 -6.5,6.5 h -89 a 6.50736,6.50736 0 0 1 -6.5,-6.5 z"
       fill="#3f3d56"
       id="path866" />
    <circle
       cx="589.90515"
       cy="277.18265"
       r="6"
       fill="#ffffff"
       id="circle868" />
    <path
       d="m 277.08293,219.51985 a 10.05575,10.05575 0 0 0 -15.32037,-1.74408 l -31.75443,-16.3901 1.974,18.46448 29.8519,12.73351 a 10.11027,10.11027 0 0 0 15.24888,-13.06381 z"
       fill="#ffb8b8"
       id="path870" />
    <path
       d="m 248.86264,226.95203 a 4.505,4.505 0 0 1 -3.66895,0.0391 L 215.0315,213.90709 a 46.37347,46.37347 0 0 1 -23.462,-22.69758 l -15.85695,-33.47116 a 14.49652,14.49652 0 1 1 22.90078,-17.78059 l 27.8727,51.71356 25.73681,19.44154 a 4.5147,4.5147 0 0 1 1.58663,4.92131 l -2.5261,8.15923 a 4.50568,4.50568 0 0 1 -1.52373,2.21147 4.45458,4.45458 0 0 1 -0.897,0.54716 z"
       fill="#cccccc"
       id="path872" />
    <circle
       cx="175.01468"
       cy="93.813583"
       r="24.561029"
       fill="#ffb8b8"
       id="circle874" />
    <polygon
       points="184.658,368.539 184.661,415.827 196.92,415.827 202.753,368.539 "
       fill="#ffb8b8"
       id="polygon876"
       transform="translate(0.30218412,0.18265328)" />
    <path
       d="m 220.86694,427.39233 -38.53073,0.002 -6.8e-4,-14.88687 23.64387,-10e-4 a 14.88686,14.88686 0 0 1 14.88754,14.88618 v 0 z"
       fill="#2f2e41"
       id="path878" />
    <polygon
       points="144.658,368.539 144.661,415.827 156.92,415.827 162.753,368.539 "
       fill="#ffb8b8"
       id="polygon880"
       transform="translate(0.30218412,0.18265328)" />
    <path
       d="m 180.86694,427.39233 -38.53073,0.002 -6.8e-4,-14.88687 23.64387,-10e-4 a 14.88686,14.88686 0 0 1 14.88754,14.88618 v 0 z"
       fill="#2f2e41"
       id="path882" />
    <path
       d="m 140.68202,402.47431 a 4.49854,4.49854 0 0 1 -1.075,-3.55859 l 21.4646,-160.98535 53.32861,9.05664 5.69141,-3.415 -14.71748,152.7441 a 4.51232,4.51232 0 0 1 -4.09619,3.96387 l -16.14771,1.3457 a 4.49918,4.49918 0 0 1 -4.86645,-4.74219 l 4.18066,-72.74219 a 0.50006,0.50006 0 0 0 -0.98193,-0.16015 l -20.68311,76.70019 a 4.50773,4.50773 0 0 1 -4.34472,3.3291 h -14.367 a 4.49845,4.49845 0 0 1 -3.38569,-1.53613 z"
       fill="#2f2e41"
       id="path884" />
    <path
       d="m 177.61439,249.19892 a 3.53283,3.53283 0 0 0 -4.51611,-0.18848 l -10.66187,8.293 a 4.49611,4.49611 0 0 1 -7.0874,-2.30664 c -5.22973,-18.31543 -17.07837,-64.418 -14.15942,-96.86621 1.65454,-18.39258 17.53711,-32.37109 35.405,-31.19824 12.21557,0.81445 20.252,7.86133 23.886,20.94434 8.92261,32.12207 18.72828,91.04394 20.60328,102.53027 a 4.48018,4.48018 0 0 1 -2.13648,4.58887 32.939,32.939 0 0 1 -16.69189,4.69723 c -7.11913,0 -15.65527,-2.47855 -24.64111,-10.49414 z"
       fill="#cccccc"
       id="path886" />
    <path
       d="m 181.6373,260.62551 a 10.05578,10.05578 0 0 0 -10.9788,-10.8269 l -14.87184,-32.49319 -9.84154,15.74731 15.63138,28.44186 a 10.11027,10.11027 0 0 0 20.06081,-0.86908 z"
       fill="#ffb8b8"
       id="path888" />
    <path
       d="m 154.84511,249.0583 a 4.505,4.505 0 0 1 -2.91114,-2.2334 l -15.65918,-28.90918 a 46.3735,46.3735 0 0 1 -4.45434,-32.33887 l 8.17846,-36.123 a 14.49652,14.49652 0 1 1 28.99268,0.14161 l -9.98145,57.89257 8.25367,31.18067 a 4.51469,4.51469 0 0 1 -1.78858,4.85156 l -7.02295,4.86133 a 4.50565,4.50565 0 0 1 -2.56372,0.7998 4.455,4.455 0 0 1 -1.04345,-0.12309 z"
       fill="#cccccc"
       id="path890" />
    <polygon
       points="161.697,212.828 166.697,173.828 157.697,211.828 170.697,243.828 "
       opacity="0.2"
       id="polygon892"
       transform="translate(0.30218412,0.18265328)" />
    <path
       d="m 160.99891,114.01044 a 16.53847,16.53847 0 0 1 -6.388,-1.15575 c -0.89411,-0.34457 -1.82226,-0.62779 -2.71471,-0.97258 -7.8817,-3.04509 -13.07367,-11.43907 -13.25962,-19.886504 -0.18595,-8.44743 4.18867,-16.64645 10.68463,-22.0498 6.49596,-5.40335 14.90986,-8.17746 23.33495,-8.819 9.07522,-0.691 19.29422,1.61043 24.36535,9.16826 1.34985,2.01177 2.29389,4.45258 1.494,6.8816 a 4.40341,4.40341 0 0 1 -1.24079,1.90593 c -2.2647,2.01487 -4.52249,0.49989 -6.83116,0.366 -3.17324,-0.184 -6.02338,2.38457 -7.04776,5.39355 -1.02438,3.00898 -0.57345,6.32161 0.25367,9.39068 a 23.45956,23.45956 0 0 1 1.18249,5.71008 5.74054,5.74054 0 0 1 -2.37856,5.054724 c -1.98288,1.19858 -4.58693,0.50489 -6.571,-0.69176 -1.98407,-1.19665 -3.69841,-2.86047 -5.84154,-3.74105 -2.14313,-0.880584 -5.02244,-0.685254 -6.26984,1.26729 a 6.93473,6.93473 0 0 0 -0.79266,2.28861 c -1.11828,5.09485 -0.86126,4.7948 -1.97954,9.88965 z"
       fill="#2f2e41"
       id="path894" />
    <path
       d="m 373.95038,197.36111 a 4.31989,4.31989 0 0 1 -0.8074,-3.70516 102.32847,102.32847 0 0 0 -3e-4,-47.52515 4.321,4.321 0 0 1 0.8077,-3.70516 4.2478,4.2478 0 0 1 3.35525,-1.62564 h 39.87222 a 4.30187,4.30187 0 0 1 4.2371,3.6057 167.48733,167.48733 0 0 1 0,50.97535 4.30187,4.30187 0 0 1 -4.2371,3.6057 h -39.87222 a 4.2478,4.2478 0 0 1 -3.35525,-1.62564 z"
       fill="#e6e6e6"
       id="path896" />
    <path
       d="m 312.26923,56.743166 a 4.31845,4.31845 0 0 1 -0.80709,-3.70455 102.33247,102.33247 0 0 0 0,-47.5251497 4.31848,4.31848 0 0 1 0.80709,-3.70456 4.24662,4.24662 0 0 1 3.35526,-1.62625002 h 39.87252 a 4.30258,4.30258 0 0 1 4.2371,3.60571002 167.48727,167.48727 0 0 1 0,50.9753397 4.30258,4.30258 0 0 1 -4.2371,3.60571 H 315.6245 a 4.24659,4.24659 0 0 1 -3.35527,-1.62625 z"
       fill="#e6e6e6"
       id="path898" />
    <path
       d="m 410.38096,103.78105 a 167.48663,167.48663 0 0 1 0,-50.975344 4.30156,4.30156 0 0 1 4.23679,-3.60571 h 39.87252 a 4.2466,4.2466 0 0 1 3.35526,1.62625 4.31916,4.31916 0 0 1 0.8074,3.70456 102.32847,102.32847 0 0 0 -3e-4,47.525154 4.318,4.318 0 0 1 -0.8071,3.70455 4.24657,4.24657 0 0 1 -3.35526,1.62625 h -39.87252 a 4.30156,4.30156 0 0 1 -4.23679,-3.60571 z"
       fill="#f9a826"
       id="path900" />
    <path
       d="m 243.45793,102.00117 a 167.50643,167.50643 0 0 1 0,-50.975354 4.30257,4.30257 0 0 1 4.2371,-3.6057 h 39.87252 a 4.24661,4.24661 0 0 1 3.35526,1.62624 4.31916,4.31916 0 0 1 0.80739,3.70456 102.32847,102.32847 0 0 0 -3e-4,47.525154 4.31805,4.31805 0 0 1 -0.80709,3.70456 4.24661,4.24661 0 0 1 -3.35526,1.62624 h -39.87252 a 4.30257,4.30257 0 0 1 -4.2371,-3.6057 z"
       fill="#ff6584"
       id="path902" />
    <path
       d="m 253.31985,219.67299 a 4.39086,4.39086 0 0 1 -0.82066,-3.766 104.00128,104.00128 0 0 0 -3.1e-4,-48.30592 4.392,4.392 0 0 1 0.821,-3.766 4.31762,4.31762 0 0 1 3.41038,-1.65235 h 40.52724 a 4.37254,4.37254 0 0 1 4.3067,3.66495 170.23814,170.23814 0 0 1 0,51.81279 4.37254,4.37254 0 0 1 -4.3067,3.66494 h -40.52727 a 4.31762,4.31762 0 0 1 -3.41038,-1.65241 z"
       fill="#f9a826"
       id="path904" />
    <path
       d="M 12.884122,428.31036 H 786.17812 a 1.190685,1.190685 0 1 0 0,-2.38137 H 12.884122 a 1.19069,1.19069 0 1 0 0,2.38137 z"
       fill="#3f3d56"
       id="path906" />
    <path
       d="M 289.43688,184.00444 H 268.0875 a 3.00328,3.00328 0 0 1 -3,-3 v -1.27393 a 3.00328,3.00328 0 0 1 3,-3 h 21.34937 a 3.00328,3.00328 0 0 1 3,3 v 1.27392 a 3.00328,3.00328 0 0 1 -2.99999,3.00001 z"
       fill="#ffffff"
       id="path908" />
    <path
       d="M 289.43688,196.5518 H 268.0875 a 3.00328,3.00328 0 0 1 -3,-3 v -1.27392 a 3.00328,3.00328 0 0 1 3,-3 h 21.34937 a 3.00328,3.00328 0 0 1 3,3 v 1.27392 a 3.00328,3.00328 0 0 1 -2.99999,3 z"
       fill="#ffffff"
       id="path910" />
    <path
       d="m 275.2975,72.096726 h -20.92361 a 3.00328,3.00328 0 0 1 -3,-3 v -1.17188 a 3.00328,3.00328 0 0 1 3,-3 h 20.92361 a 3.00328,3.00328 0 0 1 3,3 v 1.17188 a 3.00328,3.00328 0 0 1 -3,3 z"
       fill="#ffffff"
       id="path912" />
    <path
       d="m 408.97692,160.22612 h -20.92334 a 3.00328,3.00328 0 0 1 -3,-3 v -1.17236 a 3.00328,3.00328 0 0 1 3,-3 h 20.92334 a 3.00328,3.00328 0 0 1 3,3 v 1.17236 a 3.00328,3.00328 0 0 1 -3,3 z"
       fill="#ffffff"
       id="path914" />
    <path
       d="m 408.97692,175.0396 h -20.92334 a 3.00328,3.00328 0 0 1 -3,-3 v -1.17237 a 3.00328,3.00328 0 0 1 3,-3 h 20.92334 a 3.00329,3.00329 0 0 1 3,3 v 1.17237 a 3.00329,3.00329 0 0 1 -3,3 z"
       fill="#ffffff"
       id="path916" />
    <path
       d="m 408.97692,189.85307 h -20.92334 a 3.00328,3.00328 0 0 1 -3,-3 v -1.17236 a 3.00328,3.00328 0 0 1 3,-3 h 20.92334 a 3.00328,3.00328 0 0 1 3,3 v 1.17236 a 3.00328,3.00328 0 0 1 -3,3 z"
       fill="#ffffff"
       id="path918" />
    <path
       d="m 275.2975,84.441446 h -20.92361 a 3.00328,3.00328 0 0 1 -3,-3 v -1.17236 a 3.00328,3.00328 0 0 1 3,-3 h 20.92361 a 3.00328,3.00328 0 0 1 3,3 v 1.17236 a 3.00328,3.00328 0 0 1 -3,3 z"
       fill="#ffffff"
       id="path920" />
    <path
       d="m 347.4745,22.077676 h -20.92336 a 3.00328,3.00328 0 0 1 -3,-3 v -1.17236 a 3.00328,3.00328 0 0 1 3,-3 h 20.92336 a 3.00328,3.00328 0 0 1 3,3 v 1.17236 a 3.00328,3.00328 0 0 1 -3,3 z"
       fill="#ffffff"
       id="path922" />
    <path
       d="m 442.94835,75.111366 h -20.92358 a 3.00328,3.00328 0 0 1 -3,-3 v -1.17236 a 3.00328,3.00328 0 0 1 3,-3 h 20.92358 a 3.00328,3.00328 0 0 1 3,3 v 1.17236 a 3.00328,3.00328 0 0 1 -3,3 z"
       fill="#ffffff"
       id="path924" />
  </g>
</svg>
